# xmcd
#
# Track frame offsets:
#	150
#	14458
#	28262
#	43574
#	59665
#	72937
#	95547
#	111480
#	124552
#	137922
#	153398
#	155837
#
# Disc length: 2338
#
# Revision: 1
# Processed by: cddbd v1.5.1PL0 Copyright (c) Steve Scherf et al.
# Submitted via: VisiTrax 2.9.5.180 - For more info visit www.synapsa.com
# Normalized: r0:DSETVAR1
#
DISCID=ae09200c
DTITLE=Various Artist - CDX 238 April 2000
DYEAR=2000
DGENRE=
TTITLE0=Randy Travis - A little left of center
TTITLE1=Chuck Wagon and the Wheels - Beauty's in the eye of the beerholder
TTITLE2=Ricky Van Shelton - Call me crazy
TTITLE3=LeAnn Rimes - I need you
TTITLE4=Alan Jackson - It must be love
TTITLE5=Merle Haggard - Motorcycle cowboy/Blue yodel # 13
TTITLE6=Marty Raybon - Searching for the missing peace
TTITLE7=Hank Williams III - You're the reason
TTITLE8=Alecia Elliott - You wanna that
TTITLE9=Billy Hoffman - Perfect night
TTITLE10=Ralph Emery - PSA
TTITLE11=David Frizzell/Tommy Overstreet/Stonewall Jackson/Margo Smith/Kitty Wells/Jeanne Pruett/Tommy Cash/Narvel Felts/Jo-El Sonnier/Jimmy C Newman/Charlie Louvin/Jack Greene/John Frost/Merle Kilgore - I'm a surviver
EXTD=
EXTT0=
EXTT1=
EXTT2=
EXTT3=
EXTT4=
EXTT5=
EXTT6=
EXTT7=
EXTT8=
EXTT9=
EXTT10=
EXTT11=
PLAYORDER=
